{"title":"OO7 -Spectre- {2015} CAM XVID AC3-MRG","uid":12749485,"size":1889681320,"categoryP":"video","categoryS":"movies","magnet":"?xt=urn:btih:5f62f7c913eef01bd1a553a651666cfff1b7077f&amp;dn=OO7+-Spectre-+%7B2015%7D+CAM+XVID+AC3-MRG&amp;tr=udp%3A%2F%2Ftracker.leechers-paradise.org%3A6969&amp;tr=udp%3A%2F%2Fzer0day.ch%3A1337&amp;tr=udp%3A%2F%2Fopen.demonii.com%3A1337&amp;tr=udp%3A%2F%2Ftracker.coppersurfer.tk%3A6969&amp;tr=udp%3A%2F%2Fexodus.desync.com%3A6969","seeders":0,"leechers":3,"uploader":"SaM","files":10,"time":1447359777,"description":"OO7 -Spectre- {2015} CAM XVID AC3-MRG\r\n\r\nENG.SRT. INCLUDED....(:\r\n\r\nFormat : AVI\r\nFormat/Info : Audio Video Interleave\r\nFile size : 1.76 GiB\r\nDuration : 2h 18mn\r\nOverall bit rate : 1 818 Kbps\r\nWriting library : VirtualDub build 35491/release\r\n\r\nVideo\r\nID : 0\r\nFormat : MPEG-4 Visual\r\nFormat profile : Advanced   \r\nFormat settings, BVOP : 2\r\nFormat settings, QPel : No\r\nFormat settings, GMC : No warppoints\r\nFormat settings, Matrix : Default (H.263)\r\nMuxing mode : Packed bitstream\r\nCodec ID : XVID\r\nCodec ID/Hint : XviD\r\nDuration : 2h 18mn\r\nBit rate : 1 679 Kbps\r\nWidth : 640 pixels\r\nHeight : 314 pixels\r\nDisplay aspect ratio : 2.038\r\nFrame rate : 29.970 fps\r\nColor space : YUV\r\nChroma subsampling : 4:2:0\r\nBit depth : 8 bits\r\nScan type : Progressive\r\nCompression mode : Lossy\r\nBits/(Pixel*Frame) : 0.279\r\nStream size : 1.62 GiB (92%)\r\nWriting library : XviD 67\r\n\r\nAudio\r\nID : 1\r\nFormat : AC-3\r\nFormat/Info : Audio Coding 3\r\nMode extension : CM (complete main)\r\nFormat settings, Endianness : Big\r\nCodec ID : 2000\r\nDuration : 2h 18mn\r\nBit rate mode : Constant\r\nBit rate : 128 Kbps\r\nChannel(s) : 2 channels\r\nChannel positions : Front: L R\r\nSampling rate : 48.0 KHz\r\nCompression mode : Lossy\r\nStream size : 127 MiB (7%)\r\nAlignment : Split accross interleaves\r\nInterleave, duration : 33 ms (1.00 video frame)\r\nInterleave, preload duratio : 500 ms\r\n \nhttp://extraimago.com/image/eDi \nhttp://extraimago.com/image/eDl \nhttp://extraimago.com/image/eDI \nhttp://extraimago.com/image/eDd \nhttp://extraimago.com/image/eDh \nhttp://extraimago.com/image/eDb","torrent":{"xt":"urn:btih:5f62f7c913eef01bd1a553a651666cfff1b7077f","amp;dn":"OO7+-Spectre-+%7B2015%7D+CAM+XVID+AC3-MRG","amp;tr":["udp%3A%2F%2Ftracker.leechers-paradise.org%3A6969","udp%3A%2F%2Fzer0day.ch%3A1337","udp%3A%2F%2Fopen.demonii.com%3A1337","udp%3A%2F%2Ftracker.coppersurfer.tk%3A6969","udp%3A%2F%2Fexodus.desync.com%3A6969"],"infoHash":"5f62f7c913eef01bd1a553a651666cfff1b7077f","infoHashBuffer":{"type":"Buffer","data":[95,98,247,201,19,238,240,27,209,165,83,166,81,102,108,255,241,183,7,127]},"announce":[],"urlList":[]}}